# xmcd
#
# Track frame offsets: 
#        150
#        12545
#        28806
#        45309
#        63430
#        79002
#        91454
#        103486
#        121263
#        139535
#        153321
#        170691
#        183249
#        196225
#        211348
#        222233
#        243804
#
# Disc length: 3524 seconds
#
# Revision: 0
# Processed by: cddbd v1.5.2PL0 Copyright (c) Steve Scherf et al.
# Submitted via: ExactAudioCopy v0.99pb5
#
DISCID=e70dc211
DTITLE=Various Artist - Country - Gold Metal Box - CD 2
DYEAR=2009
DGENRE=Country Pop
TTITLE0=Charlie Rich - The most beautiful girl
TTITLE1=Exile - Kiss you all over
TTITLE2=Alabama - Mountain music
TTITLE3=Mark Knopfler and Chet Atkins - Poor boy blues
TTITLE4=Tractors - Linda Lou
TTITLE5=Lorrie Morgan - What part of no
TTITLE6=Willie Nelson - Funny (how time slips away)
TTITLE7=Rosanne Cash - Runaway train
TTITLE8=Dolly Parton - The river unbroken
TTITLE9=New Riders Of The Purple Sage - Louisiana lady
TTITLE10=Ricky Skaggs - Country boy
TTITLE11=Jerry Reed - East bound and down
TTITLE12=Lynn Anderson - Rose garden
TTITLE13=Rosanne Cash and Rodney Crowell - It's such a small world
TTITLE14=Tanya Tucker - Would you lay with me (in a field of stone)
TTITLE15=Willie Nelson with Merle Haggard - Pancho and Lefty
TTITLE16=Highwaymen - Desperados waiting for a train
EXTD=
EXTT0=
EXTT1=
EXTT2=
EXTT3=
EXTT4=
EXTT5=
EXTT6=
EXTT7=
EXTT8=
EXTT9=
EXTT10=
EXTT11=
EXTT12=
EXTT13=
EXTT14=
EXTT15=
EXTT16=
PLAYORDER=
